<svg id="Layer_1" data-name="Layer 1" xmlns="http://www.w3.org/2000/svg" viewBox="0 0 468.17 82.83"><path d="M45.26,25.1c0-1-.13-2-.21-3.07a20.63,20.63,0,0,1-.13-2.85c0-1.38,0-2.81.13-4.1,0-.44.13-1,.13-1.56a1.52,1.52,0,0,0-.26-1,3,3,0,0,0-2-.48,7.2,7.2,0,0,0-1.12,0c-.65,0-.74.38-.74.64v.39c0,.35-.08.56-.64.56-.91,0-1.6-1.21-2.29-1.59a8,8,0,0,0-2.77-.7h-.3a10.3,10.3,0,0,0-4,.87,6.37,6.37,0,0,0-2.72,2.81A11.48,11.48,0,0,0,27,20.69a13,13,0,0,0,.26,2.59,8,8,0,0,0,5,5.62,10.92,10.92,0,0,0,3.41.65,5,5,0,0,0,3.71-1.43c.48-.47.82-1.86,1.39-1.86.17,0,.38.13.64.48.35.52.09,1.34.52,1.77.17.22.65.3,1.26.3.9,0,1.94-.21,2.16-.56a2.11,2.11,0,0,0,.08-.6c0-.65-.13-1.47-.13-1.86Zm-5.61-1.3a5.64,5.64,0,0,1-3.81,1.43,3.7,3.7,0,0,1-1.68-.39,5.05,5.05,0,0,1-2.33-4.49,3.78,3.78,0,0,1,.08-1,4.69,4.69,0,0,1,1.82-3.07,3.76,3.76,0,0,1,2.37-.82,3.34,3.34,0,0,1,.61,0,5.92,5.92,0,0,1,3,1.47,5,5,0,0,1,1.25,3.41A4.76,4.76,0,0,1,39.65,23.8ZM20.3,3c-.48,0-1.08-.13-1.64-.13a2.17,2.17,0,0,0-2,.78,1.74,1.74,0,0,0-.26,1c0,.73.26,1.55.26,2.24v.17c0,.44,0,.91,0,1.34v.69c0,.7,0,1.39-.05,2.08-.17,1.68-1,1.73-2.42,1.77h-.3c-.9,0-1.81.09-2.76.09a23.72,23.72,0,0,1-2.38-.13c-.86-.05-1.81.17-2.37-.61a3.08,3.08,0,0,1-.52-2c0-.56,0-1.16,0-1.72,0-1.34.35-2.55.35-3.81V4.45C6.13,2.76,5.09,2.76,3.71,2.68H3a2.27,2.27,0,0,0-1.86.6,1.83,1.83,0,0,0-.22,1c0,.73.18,1.51.22,2.11s.13,1.52.17,2.25l.09,1.21v.86c0,.82,0,1.64,0,2.42a6.27,6.27,0,0,0,0,.91c0,.56,0,1.08,0,1.68,0,2.16-.17,4.32-.17,6.53,0,.47-.3,2.42-.3,4.06,0,1.47.21,2.72,1,2.72a.19.19,0,0,1,.13,0,7.65,7.65,0,0,1,1.12-.13h.18c.47,0,1,.08,1.38.08a1.1,1.1,0,0,0,1.08-.56A2.73,2.73,0,0,0,6,27.21c0-.47-.08-1-.08-1.51l-.17-4.14c0-.35,0-.74,0-1.21a5.5,5.5,0,0,1,.52-2.77c.52-.73,1.73-.86,2.76-.86.48,0,.91,0,1.26,0,1.25,0,2.5.17,3.8.3a1.65,1.65,0,0,1,.21.05c1.69.17,2.12.39,2.12,2.11a15.89,15.89,0,0,0,.35,2.12v.39c0,.52-.09,1.08-.09,1.6,0,1.47,0,2.85-.09,4.23,0,1.08.61,1.38,1.52,1.38.3,0,.69,0,1.08,0h.47c1.21,0,1.43-.65,1.43-1.73v-.65a7.74,7.74,0,0,1,0-1.08c0-.64,0-1.25,0-1.85,0-.35,0-.74,0-1.17C21,21.64,21,20.86,21,20c0-2,.13-3.93.13-5.87v-.39c0-1.3.13-2.5.13-3.76,0-.95-.05-1.86-.05-2.76a12.64,12.64,0,0,1,.05-1.38,11.93,11.93,0,0,0,.21-1.6C21.42,3.63,21.21,3.2,20.3,3Zm407,22.12c0-1-.13-2-.22-3.07a20.63,20.63,0,0,1-.13-2.85c0-1.38,0-2.81.13-4.1,0-.44.13-1,.13-1.56a1.46,1.46,0,0,0-.26-1,3,3,0,0,0-1.94-.48,7.27,7.27,0,0,0-1.13,0c-.64,0-.73.38-.73.64v.39c0,.35-.09.56-.65.56-.91,0-1.6-1.21-2.29-1.59a8,8,0,0,0-2.76-.7h-.31a10.22,10.22,0,0,0-4,.87,6.27,6.27,0,0,0-2.72,2.81A11.49,11.49,0,0,0,409,20.69a13,13,0,0,0,.26,2.59,8.05,8.05,0,0,0,5,5.62,11,11,0,0,0,3.41.65,5.07,5.07,0,0,0,3.72-1.43c.47-.47.82-1.86,1.38-1.86.17,0,.39.13.65.48.34.52.08,1.34.52,1.77.17.22.64.3,1.25.3.91,0,1.94-.21,2.16-.56a2.11,2.11,0,0,0,.08-.6c0-.65-.12-1.47-.12-1.86Zm-5.62-1.3a5.63,5.63,0,0,1-3.8,1.43,3.72,3.72,0,0,1-1.69-.39,5.05,5.05,0,0,1-2.33-4.49,3.37,3.37,0,0,1,.09-1,4.64,4.64,0,0,1,1.81-3.07,3.77,3.77,0,0,1,2.38-.82,3.23,3.23,0,0,1,.6,0,5.88,5.88,0,0,1,3,1.47A5,5,0,0,1,423,20.43,4.77,4.77,0,0,1,421.66,23.8ZM100.72,15.68a8,8,0,0,0-6.48-4.23,16.71,16.71,0,0,0-3.85.82,6.86,6.86,0,0,0-3.58,2.07A7.93,7.93,0,0,0,85,19.83,20.32,20.32,0,0,0,85.12,22a7.9,7.9,0,0,0,4.15,6.43,7.24,7.24,0,0,0,3.93,1.21,8.88,8.88,0,0,0,3.33-.73c1.42-.61,3.19-1.21,4.23-2.42a1.42,1.42,0,0,0,.26-.78,2.46,2.46,0,0,0-2.33-2,1.93,1.93,0,0,0-.48.08c-1.08.43-1.68,1.56-2.85,1.82a5.91,5.91,0,0,1-.86,0h-1a4.14,4.14,0,0,1-3.19-1.12,3.81,3.81,0,0,1-1-2.21,1,1,0,0,1,0-.39c.17-.69.82-.82,1.46-.82s1.21.09,1.69.09.78,0,1.12,0c1.9,0,3.8.21,5.71.21h.34c1.3,0,2,0,2-1.16a2.68,2.68,0,0,0,0-.61A10.21,10.21,0,0,0,100.72,15.68Zm-4,2.64c-.39.34-1.34.26-1.86.3H94.5c-.87,0-1.69-.09-2.55-.09-1.17,0-2.42-.39-2.42-1.29A2.31,2.31,0,0,1,90.18,16a1.1,1.1,0,0,1,.34-.34,5,5,0,0,1,2.9-.91,3.72,3.72,0,0,1,3.45,1.77,2.23,2.23,0,0,1,.18.78A1.57,1.57,0,0,1,96.7,18.32Zm15.2,0c-.86-.43-2.76-1-2.76-2.07a1.59,1.59,0,0,1,.21-.7,1.28,1.28,0,0,1,1.13-.56,3.7,3.7,0,0,1,1.12.22c.56.17,1.12.73,1.73.82a2.71,2.71,0,0,0,2-1.43,1.08,1.08,0,0,0,.26-.69c0-.52-.43-.95-.95-1.34a5.73,5.73,0,0,0-1.64-.77,3.16,3.16,0,0,0-.69-.05h-.43c-.3,0-.61,0-.91,0a6.06,6.06,0,0,0-1.51.22,7.19,7.19,0,0,0-2.89,1.42,4,4,0,0,0-1.39,3,2,2,0,0,0,0,.56c.17,2,1.72,3.42,3.41,4.32,1,.56,4.28,1.08,4.28,2.68a2.07,2.07,0,0,1-.09.43,1.9,1.9,0,0,1-1.94,1.08,3.65,3.65,0,0,1-1.56-.34c-.69-.3-.78-1-1.6-1.17a1.43,1.43,0,0,0-.43,0,2.57,2.57,0,0,0-1.38.39,2.17,2.17,0,0,0-1.3,1.77,1.15,1.15,0,0,0,.35.82,6.4,6.4,0,0,0,1.9,1.16,6.91,6.91,0,0,0,2.07.78,7.72,7.72,0,0,0,1.86.26,8,8,0,0,0,2.33-.34,4.81,4.81,0,0,0,3.5-4.88,6,6,0,0,0-.22-1.78C115.88,20,113.59,19.22,111.9,18.36ZM357.83,16a9,9,0,0,0-3.55-3.63,8.2,8.2,0,0,0-4.06-1,8.67,8.67,0,0,0-7.3,3.59,11.17,11.17,0,0,0-1.6,5.92,13.77,13.77,0,0,0,.13,1.85c.61,4.2,5,6.66,9,6.66a9.32,9.32,0,0,0,3.67-.74c3.29-1.51,4.76-4.75,4.76-8.16a9.41,9.41,0,0,0-.18-1.9A6.17,6.17,0,0,0,357.83,16ZM355.15,21a6.18,6.18,0,0,1-3,4.28,4.68,4.68,0,0,1-1.86.43,3.18,3.18,0,0,1-.69-.09,3.08,3.08,0,0,1-1.9-.82c-.05,0-.09-.13-.18-.17a7.25,7.25,0,0,1-1.85-1.94,5.39,5.39,0,0,1-.57-2.25,1.84,1.84,0,0,1,.05-.52,5,5,0,0,1,5-4.32,4.89,4.89,0,0,1,3.28,1.25,5.28,5.28,0,0,1,1.73,3.63A2.24,2.24,0,0,1,355.15,21Zm-274.9,1.9c0-.73-.13-1.38-.13-2.12a4.29,4.29,0,0,1,0-.69c0-.43,0-.86,0-1.29a10.68,10.68,0,0,0-.47-3.24,4.77,4.77,0,0,0-2.68-3.33,4.94,4.94,0,0,0-2.46-.56,6.66,6.66,0,0,0-1.34.09,5.73,5.73,0,0,0-2,.69c-.43.26-1.16,1.21-1.59,1.29a1.49,1.49,0,0,0-.22.05c-.22,0-.3-.22-.3-.48s0-.3,0-.47a1,1,0,0,0-.17-.61c-.26-.34-1.08-.39-1.73-.39-.48,0-.86.05-1.12.05-.91.08-1,.56-1,1.47,0,1.38.17,2.85.22,4.19,0,.95,0,1.9,0,2.85a53.8,53.8,0,0,1-.22,5.4c0,.51-.26,1.25-.26,1.85a1.33,1.33,0,0,0,.22.87,2.12,2.12,0,0,0,1.81.69,6.72,6.72,0,0,0,2.08-.35A1.41,1.41,0,0,0,70,27.39a13.36,13.36,0,0,0-.26-1.69,26.12,26.12,0,0,1-.22-4.14V20.48c0-1.56.09-2.81,1.38-3.89a4.57,4.57,0,0,1,2.68-.95,2.15,2.15,0,0,1,1.51.52A5.09,5.09,0,0,1,76.23,20c0,1.73-.35,3.63-.39,4.88,0,.73-.3,1.73-.3,2.59a2.51,2.51,0,0,0,.26,1.17c.3.52,1.12.65,1.9.65a9.35,9.35,0,0,0,1.21-.13c1.08-.09,1.6-.48,1.6-1.39,0-.13-.05-.26-.05-.39C80.29,25.83,80.33,24.36,80.25,22.85Zm384.55.65a3,3,0,0,0-2.59,1.3,3.89,3.89,0,0,0-.6,2,2.81,2.81,0,0,0,.43,1.55,2.92,2.92,0,0,0,2.37,1.3A4.24,4.24,0,0,0,468,27a2.51,2.51,0,0,0,.21-.95C468.17,24.54,466.44,23.5,464.8,23.5ZM146.58,16.16a4,4,0,0,1,.43,2.2c0,.82-.08,1.68-.08,2.2,0,1.3-.05,2.55-.09,3.85,0,.69-.34,2-.34,3a1.86,1.86,0,0,0,.26,1.08,2.23,2.23,0,0,0,1.72.52c.31,0,.56,0,.78,0s.65,0,.91,0a.92.92,0,0,0,1-.65,2.65,2.65,0,0,0,.13-.82,14.66,14.66,0,0,0-.3-1.9c0-.82,0-1.69,0-2.47-.09-1.08-.09-2.16-.09-3.24,0-.64,0-1.33,0-2,.05-.48.05-.91.09-1.34.3-2,3.33,0,3.33-2.21v-1a1.12,1.12,0,0,0-.31-.91,1,1,0,0,0-.69-.21c-.43,0-.9.17-1.34.17a.82.82,0,0,1-.6-.22c-.26-.21-.3-.73-.3-1.16v-.65c0-.65.3-1.82.3-2.81a2.52,2.52,0,0,0-.22-1.08A1.39,1.39,0,0,0,150,6.05c-.3,0-.56,0-.78,0-1.47.09-2.59-.13-2.59,1.73,0,.69.34,1.81.34,2.72a1.63,1.63,0,0,1-.47,1.3,1,1,0,0,1-.74.26c-.21,0-.43,0-.64,0a.9.9,0,0,0-.52.09c-.69.3-.69,1-.78,1.64a4.69,4.69,0,0,0-.09.73,1.18,1.18,0,0,0,.44,1C144.94,16,146,15.42,146.58,16.16Zm184.21,0a4.13,4.13,0,0,1,.43,2.2c0,.82-.09,1.68-.09,2.2,0,1.3,0,2.55-.09,3.85,0,.69-.34,2-.34,3a1.94,1.94,0,0,0,.26,1.08,2.25,2.25,0,0,0,1.73.52c.3,0,.56,0,.77,0s.65,0,.91,0a.93.93,0,0,0,1-.65,3,3,0,0,0,.13-.82,16.6,16.6,0,0,0-.3-1.9c-.05-.82-.05-1.69-.05-2.47-.08-1.08-.08-2.16-.08-3.24,0-.64,0-1.33,0-2,0-.48,0-.91.09-1.34.3-2,3.32,0,3.32-2.21v-1a1.12,1.12,0,0,0-.3-.91,1,1,0,0,0-.69-.21c-.43,0-.91.17-1.34.17a.84.84,0,0,1-.61-.22,1.65,1.65,0,0,1-.3-1.16v-.65c0-.65.3-1.82.3-2.81a2.53,2.53,0,0,0-.21-1.08,1.41,1.41,0,0,0-1.17-.43c-.3,0-.56,0-.78,0-1.47.09-2.59-.13-2.59,1.73,0,.69.35,1.81.35,2.72a1.6,1.6,0,0,1-.48,1.3,1,1,0,0,1-.73.26c-.22,0-.43,0-.65,0a.9.9,0,0,0-.52.09c-.69.3-.69,1-.78,1.64a4.65,4.65,0,0,0-.08.73,1.17,1.17,0,0,0,.43,1C329.14,16,330.22,15.42,330.79,16.16ZM305,19.4c0,1.29-.08,2.59-.13,3.88-.08,1.08-.21,2.25-.21,3.37a11.05,11.05,0,0,0,0,1.17A1.12,1.12,0,0,0,306,28.9c.56,0,1.25-.17,1.81-.17h.09c.39,0,.69.13.91.13s.52-.13.69-.61a2.23,2.23,0,0,0,.13-.78,10.94,10.94,0,0,0-.13-1.25,30.44,30.44,0,0,1-.3-3.93,20.44,20.44,0,0,1,.21-2.81c.26-1.6,1.17-3.71,3.07-3.71.13,0,.26,0,.39,0a9.18,9.18,0,0,0,1.29.17c.48,0,.78-.17,1.08-.9a7.13,7.13,0,0,0,.65-2.29,1.21,1.21,0,0,0-.3-.91,2.52,2.52,0,0,0-1.69-.48,5.78,5.78,0,0,0-.95.09c-1.38.17-1.77.95-2.76,1.64-.17.13-.17.22-.43.3-.39-.08-.48-.21-.48-.38v-.18a.78.78,0,0,0,0-.3c-.26-.52-.78-.56-1.34-.56-.3,0-.65,0-.91,0a1,1,0,0,1-.34,0,10.17,10.17,0,0,0-1-.22,1,1,0,0,0-.39.05,1.7,1.7,0,0,0-.69,1.12,5.71,5.71,0,0,0-.09.82,29.83,29.83,0,0,0,.52,4.1C305,18.36,305,18.88,305,19.4Zm-121.66,9a7.24,7.24,0,0,0,3.93,1.21,8.88,8.88,0,0,0,3.33-.73c1.42-.61,3.19-1.21,4.23-2.42a1.42,1.42,0,0,0,.26-.78,2.46,2.46,0,0,0-2.33-2,1.93,1.93,0,0,0-.48.08c-1.08.43-1.68,1.56-2.85,1.82a5.91,5.91,0,0,1-.86,0h-1a4.14,4.14,0,0,1-3.19-1.12,3.81,3.81,0,0,1-1-2.21,1,1,0,0,1,.05-.39c.17-.69.82-.82,1.46-.82s1.21.09,1.69.09.78,0,1.12,0c1.9,0,3.8.21,5.7.21h.35c1.3,0,2,0,2-1.16a2.68,2.68,0,0,0-.05-.61,10.21,10.21,0,0,0-.9-3.93,8,8,0,0,0-6.48-4.23,16.71,16.71,0,0,0-3.85.82,6.86,6.86,0,0,0-3.58,2.07,7.93,7.93,0,0,0-1.82,5.49,20.32,20.32,0,0,0,.13,2.16A7.88,7.88,0,0,0,183.38,28.42ZM184.29,16a1.1,1.1,0,0,1,.34-.34,5,5,0,0,1,2.9-.91A3.72,3.72,0,0,1,191,16.5a2.22,2.22,0,0,1,.17.78,1.62,1.62,0,0,1-.34,1c-.39.34-1.34.26-1.86.3h-.34c-.87,0-1.69-.09-2.55-.09-1.17,0-2.42-.39-2.42-1.29A2.31,2.31,0,0,1,184.29,16Zm272,4.88c0-.6,0-1.25,0-1.9V16.54A6.75,6.75,0,0,0,456,14a4.2,4.2,0,0,0-4.06-2.63,5.66,5.66,0,0,0-2.33.52c-.91.47-1.73,1.72-2.68,2a.47.47,0,0,1-.26,0c-.82,0-1.77-1.21-2.5-1.64a4.13,4.13,0,0,0-2.25-.78,3.81,3.81,0,0,0-1,.17c-1.08.26-1.95,1.25-3,1.25a3,3,0,0,1-.82-.17,9.8,9.8,0,0,0-1.51-.86c-.17,0-1-.09-1.6-.09-.34,0-.6,0-.6.09a2.69,2.69,0,0,0-.39.6,2.34,2.34,0,0,0-.09.56,7.89,7.89,0,0,0,.22,1.38c0,.39,0,.7,0,1v2c0,2.46-.3,5-.3,7.52v.3c0,.56-.13,1.21-.13,1.81a1.63,1.63,0,0,0,1,1.77,8.37,8.37,0,0,0,1.85.22c.87,0,1.78-.13,2-.48a2.34,2.34,0,0,0,.26-1.34c0-1-.21-2.2-.26-2.8a17.46,17.46,0,0,1-.13-2.08c0-.69.05-1.42.05-2.11s-.05-1.13-.05-1.69a3.58,3.58,0,0,1,.61-2.33,3,3,0,0,1,2.16-.95,2.1,2.1,0,0,1,1.42.47c1,.74.91,2.68,1,3.81a16.94,16.94,0,0,1,0,4.19c-.09.9-.22,1.85-.22,2.8,0,.18.05.39.05.61.08,1.34.6,1.55,1.55,1.55.26,0,.52,0,.78,0s.82.09,1.12.09a.92.92,0,0,0,.87-.48,1.52,1.52,0,0,0,.3-.86,5.62,5.62,0,0,0-.39-1.51,6.37,6.37,0,0,1-.09-1.3v-1.3a11.14,11.14,0,0,1,0-1.16c0-.43,0-.82,0-1.26.09-1.81.35-5.57,2.68-5.57a2.81,2.81,0,0,1,.95.17c1.94.65,2.29,2.81,2.29,4.84,0,1-.09,2-.09,2.77,0,1.47-.3,2.89-.43,4.36v.17c0,1,1,1.3,2,1.3a5.55,5.55,0,0,0,2.07-.43,1.15,1.15,0,0,0,.82-1.17c0-.56-.26-1.21-.3-1.81A41.58,41.58,0,0,1,456.34,20.86ZM242.42,29.42a9.32,9.32,0,0,0,3.67-.74c3.29-1.51,4.76-4.75,4.76-8.16a9.41,9.41,0,0,0-.18-1.9,6.17,6.17,0,0,0-.9-2.59,9,9,0,0,0-3.55-3.63,8.2,8.2,0,0,0-4.06-1,8.67,8.67,0,0,0-7.3,3.59,11.17,11.17,0,0,0-1.6,5.92,13.77,13.77,0,0,0,.13,1.85C234,27,238.36,29.42,242.42,29.42Zm-5.31-9.55a5,5,0,0,1,5-4.32,4.89,4.89,0,0,1,3.28,1.25,5.28,5.28,0,0,1,1.73,3.63,2.24,2.24,0,0,1,0,.52,6.15,6.15,0,0,1-3,4.28,4.68,4.68,0,0,1-1.86.43,3.18,3.18,0,0,1-.69-.09,3.08,3.08,0,0,1-1.9-.82s-.09-.13-.18-.17a7.25,7.25,0,0,1-1.85-1.94,5.37,5.37,0,0,1-.56-2.25A2.28,2.28,0,0,1,237.11,19.87ZM59.69,11.4a5.78,5.78,0,0,0-.95.09c-1.39.17-1.77.95-2.77,1.64-.17.13-.17.22-.43.3-.39-.08-.48-.21-.48-.38v-.18a.78.78,0,0,0,0-.3c-.26-.52-.78-.56-1.34-.56-.3,0-.65,0-.91,0a1,1,0,0,1-.34,0,9.63,9.63,0,0,0-1-.22,1,1,0,0,0-.39.05A1.74,1.74,0,0,0,50.31,13a5.69,5.69,0,0,0-.08.82,31.8,31.8,0,0,0,.51,4.1,15,15,0,0,1,0,1.52c0,1.29-.09,2.59-.13,3.88-.09,1.08-.22,2.25-.22,3.37a8.85,8.85,0,0,0,.05,1.17,1.11,1.11,0,0,0,1.29,1.08c.56,0,1.25-.17,1.81-.17h.09c.39,0,.69.13.91.13s.52-.13.69-.61a2,2,0,0,0,.13-.78,10.94,10.94,0,0,0-.13-1.25,30.44,30.44,0,0,1-.3-3.93,20.44,20.44,0,0,1,.21-2.81c.26-1.6,1.17-3.71,3.07-3.71.13,0,.26,0,.39,0A9.11,9.11,0,0,0,60,16c.47,0,.77-.17,1.08-.9a7.39,7.39,0,0,0,.64-2.29,1.21,1.21,0,0,0-.3-.91A2.49,2.49,0,0,0,59.69,11.4ZM262.29,30c.3,0,.52-.17.78-.61a15.13,15.13,0,0,0,1.42-3.88c.39-1.21.87-2.55,1.38-3.76.31-.69.91-1.9,1.56-1.9.3,0,.52.21.78.65a4.36,4.36,0,0,1,.43,1.72,13.31,13.31,0,0,0,.86,2,27.38,27.38,0,0,1,1.08,3.89c.22.87.78,1.86,1.52,1.86a1.14,1.14,0,0,0,.86-.61c.69-.9.69-2,1.08-3.06s1.08-1.69,1.38-2.72A38.22,38.22,0,0,1,278,17.88c.65-1.42,1.6-2.8,2.16-4.14a3,3,0,0,0,.22-.91c0-.73-.69-.78-1.43-.78h-.65a4.29,4.29,0,0,1-.73,0,6,6,0,0,0-1.08-.26.75.75,0,0,0-.65.43,8.85,8.85,0,0,0-.69,2c-.43,1.3-1,2.77-1.51,4.06-.26.82-.86,1.77-1.55,1.77-.26,0-.65-.21-1-.77a24.48,24.48,0,0,1-1.38-3.59c-.43-1.17-.47-2.55-.95-3.58A1.85,1.85,0,0,0,267.34,11a1,1,0,0,0-.6.13c-.87.48-1.25,2.68-1.56,3.54a22.11,22.11,0,0,1-1.25,3.76c-.26.48-.69.78-.95,1.26s-.22,1.25-.65,1.42a.43.43,0,0,1-.17,0c-.82,0-.65-1.68-.82-2.11-.35-1.3-1.25-2.25-1.56-3.63a11.32,11.32,0,0,0-.56-2.64,1.18,1.18,0,0,0-1.16-.82c-.44,0-.87.13-1.34.13s-1-.21-1.52-.21-.95.21-.95.95c.05,1.51,1,2.72,1.69,4a32.62,32.62,0,0,1,2,3.63c.52,1.3.82,2.59,1.38,3.89C259.78,25.18,261,30,262.29,30ZM221.56,11.49a6,6,0,0,0-2.63.56c-.91.43-1.69,1.95-2.73,1.95H216c-.3-.69,0-1.47-.73-1.95a4.08,4.08,0,0,0-1.86-.43,2.7,2.7,0,0,0-1.25.26,3.94,3.94,0,0,0-.35.22,1,1,0,0,0-.3.77,4,4,0,0,0,.22,1,12.79,12.79,0,0,1,.43,3.59c0,1.34-.13,2.63-.18,3.93,0,.86,0,1.77,0,2.72V27.3a34.79,34.79,0,0,1-.17,4.23c-.09,1.34-.26,2.85-.26,4.28v.56c0,1.21.56,1.34,2.94,1.34h.39a1.53,1.53,0,0,0,1.46-.6,1,1,0,0,0,.26-.65,7.61,7.61,0,0,0-.21-1.12c-.13-1.47-.13-3.2-.22-4.71,0-.39-.09-1.43-.09-2.38s.05-1.81.44-1.86c.77.18,1.21,1.17,1.85,1.52a8,8,0,0,0,2.25.86,6.13,6.13,0,0,0,1.51.13A6.66,6.66,0,0,0,226.87,27a10,10,0,0,0,2.77-7.21,13.14,13.14,0,0,0-.39-3C228.47,13.82,224.89,11.49,221.56,11.49Zm.26,13.82a4.06,4.06,0,0,1-1,.13,5.21,5.21,0,0,1-3.84-1.51,4.58,4.58,0,0,1-.91-3.15,6.68,6.68,0,0,1,1.21-4.11,4.67,4.67,0,0,1,3.41-1.33,5.66,5.66,0,0,1,3.5,1.2,4,4,0,0,1,1.43,3.29C225.58,22.2,224.07,24.88,221.82,25.31ZM383.56,11.4a5.9,5.9,0,0,0-.95.09c-1.38.17-1.77.95-2.76,1.64-.17.13-.17.22-.43.3-.39-.08-.48-.21-.48-.38v-.18a.78.78,0,0,0,0-.3c-.26-.52-.78-.56-1.34-.56-.3,0-.65,0-.91,0a1,1,0,0,1-.34,0,9.63,9.63,0,0,0-1-.22,1,1,0,0,0-.39.05,1.74,1.74,0,0,0-.69,1.12,5.69,5.69,0,0,0-.08.82,31.8,31.8,0,0,0,.51,4.1,15,15,0,0,1,.05,1.52c0,1.29-.09,2.59-.13,3.88-.09,1.08-.22,2.25-.22,3.37a8.85,8.85,0,0,0,.05,1.17,1.11,1.11,0,0,0,1.29,1.08c.56,0,1.25-.17,1.81-.17h.09c.39,0,.69.13.91.13s.52-.13.69-.61a2,2,0,0,0,.13-.78,10.94,10.94,0,0,0-.13-1.25,30.44,30.44,0,0,1-.3-3.93,20.44,20.44,0,0,1,.21-2.81c.26-1.6,1.17-3.71,3.07-3.71.13,0,.26,0,.39,0a9.11,9.11,0,0,0,1.3.17c.47,0,.77-.17,1.08-.9a7.39,7.39,0,0,0,.64-2.29,1.21,1.21,0,0,0-.3-.91A2.5,2.5,0,0,0,383.56,11.4ZM404.38,16a8.9,8.9,0,0,0-3.54-3.63,8.2,8.2,0,0,0-4.06-1,8.67,8.67,0,0,0-7.3,3.59,11.17,11.17,0,0,0-1.6,5.92,13.77,13.77,0,0,0,.13,1.85c.61,4.2,5,6.66,9,6.66a9.32,9.32,0,0,0,3.67-.74c3.29-1.51,4.75-4.75,4.75-8.16a9.39,9.39,0,0,0-.17-1.9A6.19,6.19,0,0,0,404.38,16ZM401.71,21a6.18,6.18,0,0,1-3,4.28,4.68,4.68,0,0,1-1.86.43,3.18,3.18,0,0,1-.69-.09,3.05,3.05,0,0,1-1.9-.82s-.09-.13-.18-.17a7.25,7.25,0,0,1-1.85-1.94,5.39,5.39,0,0,1-.57-2.25,1.84,1.84,0,0,1,.05-.52,5,5,0,0,1,5-4.32A4.89,4.89,0,0,1,400,16.8a5.28,5.28,0,0,1,1.73,3.63A2.24,2.24,0,0,1,401.71,21ZM295,28.9c1.42-.61,3.19-1.21,4.23-2.42a1.42,1.42,0,0,0,.26-.78,2.46,2.46,0,0,0-2.33-2,1.93,1.93,0,0,0-.48.08c-1.08.43-1.68,1.56-2.85,1.82a5.91,5.91,0,0,1-.86,0h-1a4.14,4.14,0,0,1-3.19-1.12,3.81,3.81,0,0,1-1-2.21,1,1,0,0,1,.05-.39c.17-.69.82-.82,1.46-.82s1.21.09,1.69.09.78,0,1.12,0c1.9,0,3.8.21,5.71.21h.34c1.3,0,2,0,2-1.16a2.68,2.68,0,0,0-.05-.61,10.21,10.21,0,0,0-.9-3.93,8,8,0,0,0-6.48-4.23,16.71,16.71,0,0,0-3.85.82,6.86,6.86,0,0,0-3.58,2.07,7.93,7.93,0,0,0-1.82,5.49,20.32,20.32,0,0,0,.13,2.16,7.9,7.9,0,0,0,4.15,6.43,7.24,7.24,0,0,0,3.93,1.21A8.88,8.88,0,0,0,295,28.9ZM288.68,16a1.1,1.1,0,0,1,.34-.34,5,5,0,0,1,2.9-.91,3.72,3.72,0,0,1,3.45,1.77,2.23,2.23,0,0,1,.18.78,1.57,1.57,0,0,1-.35,1c-.39.34-1.34.26-1.86.3H293c-.87,0-1.69-.09-2.55-.09-1.17,0-2.42-.39-2.42-1.29A2.31,2.31,0,0,1,288.68,16ZM173.88,23.8c0-.56,0-1.16,0-1.81v-.43a8,8,0,0,1,0-.95c0-.78,0-1.6,0-2.38,0-2-.26-3.85-2-5.27a5.36,5.36,0,0,0-3.67-1.12,7.55,7.55,0,0,0-.95,0c-1.42,0-2.29,1.25-3.58,1.25-.48,0-.83-.3-.83-1.08V10.76c0-1.43,0-2.85.18-4.28.08-1,.21-1.9.26-2.85,0-.65.21-1.43.21-2.16a2.93,2.93,0,0,0,0-.61c-.22-.47-.56-.56-1.12-.56a26.1,26.1,0,0,1-2.77-.3h-.21c-.69,0-1,.39-1.17,1.12a4,4,0,0,0-.13,1.26c0,1,.17,2.11.22,3.06.21,3.29.26,6.57.26,9.85,0,1.77,0,3.5,0,5.23,0,1.47,0,2.89-.09,4.32,0,.52-.3,1.77-.3,2.76,0,.65.09,1.13.39,1.34a.61.61,0,0,0,.47.13,13.72,13.72,0,0,0,1.6-.26h.22c.43,0,.86.09,1.25.09a1.88,1.88,0,0,0,.56-.09c.69-.13.91-.69.91-1.34a14.08,14.08,0,0,0-.3-1.94A27.31,27.31,0,0,1,163,21.3v-.18c0-1.94,0-4.88,2-5.7a3.53,3.53,0,0,1,1.21-.21,3.61,3.61,0,0,1,2.29.77,4.09,4.09,0,0,1,.73,2.68v.87c0,1.9,0,3.75-.13,5.65,0,.52-.17,1.26-.17,1.95,0,.86.22,1.6,1.17,1.77a13.29,13.29,0,0,0,2.37.22,2.84,2.84,0,0,0,1.34-.22,1.94,1.94,0,0,0,.35-1.3c0-1.08-.26-2.37-.31-3A4.84,4.84,0,0,1,173.88,23.8Zm-43,.05a6.39,6.39,0,0,0-.22-1.78c-.52-2-2.81-2.85-4.49-3.71-.87-.43-2.77-1-2.77-2.07a1.61,1.61,0,0,1,.22-.7,1.26,1.26,0,0,1,1.12-.56,3.7,3.7,0,0,1,1.13.22c.56.17,1.12.73,1.72.82a2.73,2.73,0,0,0,2-1.43,1.14,1.14,0,0,0,.26-.69c0-.52-.43-.95-1-1.34a5.73,5.73,0,0,0-1.64-.77,3.25,3.25,0,0,0-.69-.05h-.44c-.3,0-.6,0-.9,0a6,6,0,0,0-1.51.22,7.29,7.29,0,0,0-2.9,1.42,4,4,0,0,0-1.38,3,2.42,2.42,0,0,0,0,.56c.18,2,1.73,3.42,3.41,4.32,1,.56,4.28,1.08,4.28,2.68a1.58,1.58,0,0,1-.09.43,1.89,1.89,0,0,1-1.94,1.08,3.64,3.64,0,0,1-1.55-.34c-.7-.3-.78-1-1.6-1.17a1.43,1.43,0,0,0-.43,0,2.58,2.58,0,0,0-1.39.39,2.16,2.16,0,0,0-1.29,1.77,1.13,1.13,0,0,0,.34.82,6.53,6.53,0,0,0,1.9,1.16,7.07,7.07,0,0,0,2.08.78,7.63,7.63,0,0,0,1.85.26,8,8,0,0,0,2.34-.34A4.82,4.82,0,0,0,130.91,23.85Zm9.16,46.7h9.16v2.93A10.6,10.6,0,0,1,141.84,76a8.89,8.89,0,0,1-9-9c0-5,3.67-8.72,8.94-8.72,3.45,0,5.8,1.07,7.3,3l6.29-3.2a16.51,16.51,0,0,0-13.5-6.64c-9.48,0-16.34,7.26-16.34,15.67,0,8.15,6.42,15.67,16.38,15.67a17.28,17.28,0,0,0,13.77-6.67V64.94H140.07Zm150.6-11.76h10.67V82.3h7.35V58.79h10.67V52H290.67ZM161.14,82.3h7.26V52h-7.26ZM210.63,52h-7.26V82.3h23.07V75.53H210.63ZM324.31,82.3h23.07V75.53H331.57V70.32h13.2V64h-13.2V58.79h15.81V52H324.31ZM258.8,58.79h10.67V82.3h7.34V58.79h10.67V52H258.8ZM182.39,52h-7.26V82.3h23.06V75.53h-15.8ZM231.61,82.3h23.07V75.53H238.87V70.32h13.2V64h-13.2V58.79h15.81V52H231.61Z" fill="#a3883a"/><path d="M355.83,74.11a4.39,4.39,0,0,0-4.25,4.45,4.32,4.32,0,0,0,4.25,4.27,4.39,4.39,0,0,0,4.43-4.27A4.45,4.45,0,0,0,355.83,74.11Zm53.75-22.62a15.67,15.67,0,1,0,15.53,15.67A15.61,15.61,0,0,0,409.58,51.49Zm0,24.58a8.89,8.89,0,1,1,8.81-8.91A8.89,8.89,0,0,1,409.58,76.07Zm-31.66-18a8.59,8.59,0,0,1,8,4.59l6.15-3.61c-2.7-4.54-7.75-7.57-14.17-7.57-9.42,0-16.29,7-16.29,15.45,0,9,6.87,15.89,16.29,15.89A16.12,16.12,0,0,0,392,75l-6.15-3.56A8.76,8.76,0,0,1,377.92,76a8.9,8.9,0,0,1-8.94-9A8.64,8.64,0,0,1,377.92,58.08Zm81-6L448.45,74.24,438,52H429.9V82.3h7.26V66.85l7.21,15.45h8.1l7.22-15.45V82.3H467V52ZM17.35,73.66,8,52H0L13.32,82.3h8L34.66,52h-8ZM39.49,82.3h7.26V52H39.49Zm55.6-23.51h10.67V82.3h7.35V58.79h10.67V52H95.09ZM66.14,63.91c-4.25-1.11-6.24-1.69-6.24-3.16C59.9,59,62.55,58,64.72,58c3.1,0,4.87,2,4.87,3.56h7.22c0-4.72-4.17-10.11-12-10.11-6.86,0-12.26,4.1-12.26,9.62,0,6.72,7.92,8.41,12.44,9.48,2.79.67,5.31,1.34,5.31,3.25,0,1.29-1.2,2.67-4.43,2.67-6,0-6.55-4.81-6.55-4.81H52.1c0,4.72,3.94,11.13,13.37,11.13,7,0,12.09-3.6,12.09-9.39C77.56,66.76,70.87,65.16,66.14,63.91ZM82.87,82.3h7.26V52H82.87Z" fill="#fff"/></svg>