<svg id="Layer_1" data-name="Layer 1" xmlns="http://www.w3.org/2000/svg" viewBox="0 0 322.07 61.47"><path d="M277,12.67a12.64,12.64,0,1,0-12.63,12.67A12.7,12.7,0,0,0,277,12.67Zm-12.63,7.2a7.18,7.18,0,1,1,7.16-7.2A7.2,7.2,0,0,1,264.35,19.87ZM129.09.43H122.5L112,24.91h6.26l1.62-3.81h11.81l1.58,3.81h6.3ZM122,16.27l3.89-9.14,3.82,9.14ZM52,.43H46V12.35c0,4.71-2.3,7.52-6,7.52s-5.76-2.81-5.76-7.52V.43h-5.9V12.35c0,8.1,4.71,13,11.66,13s12-4.89,12-13Zm49.48,9.51H90.71V.43h-5.9V24.91h5.9v-9.5h10.76v9.5h5.94V.43h-5.94Zm108.21,7.84A6.36,6.36,0,0,0,206,11.84a6.29,6.29,0,0,0,2.3-4.68c0-3.92-2.23-6.73-9.32-6.73H188.37V24.91h12.06C207.12,24.91,209.68,21.78,209.68,17.78ZM194.27,5.47h5.08c2.27,0,3.35.79,3.35,2.45,0,1.91-.79,2.66-3.35,2.66h-5.08Zm5.48,14.36h-5.48V15.08h5.48c2.33,0,3.56.58,3.56,2.38C203.31,19,202.12,19.83,199.75,19.83ZM74.32,17.53a8.78,8.78,0,0,0,4.35-7.92C78.67,4.28,74.93.43,70,.43H58.12V24.91H64V18.83h4.32L72,24.91h7.35ZM69.1,13.36H64V5.9h5.11a3.73,3.73,0,0,1,0,7.46ZM221.25.43h-5.91V24.91h5.91ZM10.83.43,0,.47V24.91H10.83c7.63,0,12.92-5.15,12.92-12.27S18.89.4,10.83.43Zm0,19H5.9V5.9h4.93c4.18,0,7,2.34,7,6.74C17.78,16.74,14.94,19.44,10.83,19.44Zm236.84-1.69c0-5.4-5.43-6.7-9.28-7.71-3.46-.9-5.08-1.36-5.08-2.55,0-1.41,2.16-2.2,3.93-2.2,2.51,0,3.95,1.66,3.95,2.88h5.87c0-3.81-3.38-8.17-9.75-8.17-5.58,0-10,3.31-10,7.78,0,5.43,6.45,6.8,10.12,7.66,2.27.54,4.32,1.08,4.32,2.63,0,1.05-1,2.16-3.6,2.16-4.86,0-5.33-3.89-5.33-3.89H227c0,3.82,3.2,9,10.87,9C243.57,25.34,247.67,22.43,247.67,17.75Zm-79.23,7.16h5.95V.43H167.8l-8.5,18-8.53-18h-6.55V24.91h5.91V12.42L156,24.91h6.59l5.86-12.49Zm119.64-15,12.39,15h5.93V.43h-5.93V15.37L288.08.43h-5.94V24.91h5.94Zm28.05,26.62V51.5L303.75,36.56h-5.94V61h5.94v-15l12.38,15h5.94V36.56ZM71.18,45.74c0-5.33-3.74-9.18-8.71-9.18H50.63V61h5.9V55h4.32L64.52,61h7.35l-5-7.38A8.81,8.81,0,0,0,71.18,45.74Zm-9.57,3.74H56.53V42h5.11a3.73,3.73,0,0,1,0,7.45Zm24.7-12.92L75.84,61H82.1l1.62-3.82H95.53L97.11,61h6.3L92.9,36.56ZM85.77,52.4l3.89-9.14,3.82,9.14ZM280,36.13A12.67,12.67,0,1,0,292.65,48.8,12.66,12.66,0,0,0,280,36.13ZM280,56a7.19,7.19,0,1,1,7.17-7.2A7.21,7.21,0,0,1,280,56Zm-26-9.83c-3.45-.9-5.07-1.37-5.07-2.56,0-1.4,2.15-2.19,3.92-2.19,2.52,0,4,1.66,4,2.88h5.86c0-3.82-3.38-8.17-9.75-8.17-5.58,0-10,3.31-10,7.77,0,5.44,6.44,6.8,10.11,7.67,2.27.54,4.32,1.08,4.32,2.63,0,1-1,2.16-3.6,2.16-4.85,0-5.32-3.89-5.32-3.89h-5.87c0,3.81,3.2,9,10.87,9,5.72,0,9.83-2.92,9.83-7.6C263.34,48.47,257.9,47.18,254.05,46.17ZM231,61h5.9V36.56H231Zm-46.93-15H173.32v-9.5h-5.91V61h5.91V51.53h10.76V61H190V36.56h-5.94ZM221.67,48A6.32,6.32,0,0,0,224,43.29c0-3.92-2.23-6.73-9.32-6.73H204V61h12.05c6.7,0,9.26-3.13,9.26-7.13A6.37,6.37,0,0,0,221.67,48ZM209.94,41.6H215c2.27,0,3.35.79,3.35,2.45,0,1.91-.79,2.66-3.35,2.66h-5.07ZM215.41,56h-5.47V51.21h5.47c2.34,0,3.56.58,3.56,2.37C219,55.17,217.79,56,215.41,56ZM126.17,51.5,113.79,36.56h-5.94V61h5.94v-15l12.38,15h5.94V36.56h-5.94Zm24.67-10a7,7,0,0,1,6.52,3.7l5-2.91a13,13,0,0,0-11.52-6.12c-7.66,0-13.24,5.68-13.24,12.49,0,7.23,5.58,12.85,13.24,12.85a13.12,13.12,0,0,0,11.45-6.37l-5-2.88a7.1,7.1,0,0,1-6.44,3.71,7.22,7.22,0,0,1-7.27-7.31A7,7,0,0,1,150.84,41.46Z" fill="#aa8064"/></svg>