<svg id="Layer_1" data-name="Layer 1" xmlns="http://www.w3.org/2000/svg" viewBox="0 0 136.6 134.19"><rect width="136.6" height="134.19" fill="#a3883a"/><rect x="11.72" y="11.94" width="113.14" height="111.15" fill="#000101"/><path d="M119.61,30.43l-11.7-11.49L64.7,61.4,76.4,72.88,91.55,58a25.81,25.81,0,0,1,2.09,10.18C93.64,82.34,81.87,94,67.33,94S40.89,82.34,40.89,68.18a26.23,26.23,0,0,1,26.44-26.1c.58,0,1.15.05,1.73.08l16.29-16a47,47,0,0,0-18-3.56c-25.65,0-46.54,20.26-46.54,45.58,0,25.07,20.89,45.59,46.54,45.59s46.53-20.52,46.53-45.59a44.39,44.39,0,0,0-7.5-24.73Z" fill="#fff"/></svg>