<svg id="Layer_1" data-name="Layer 1" xmlns="http://www.w3.org/2000/svg" viewBox="0 0 199.09 132.94"><path d="M90.71,15h10.76v9.51h5.94V0h-5.94V9.5H90.71V0h-5.9V24.48h5.9ZM64,18.39h4.32L72,24.48h7.35l-5-7.39a8.77,8.77,0,0,0,4.35-7.91C78.67,3.85,74.93,0,70,0H58.12V24.48H64ZM64,5.47h5.11a3.73,3.73,0,0,1,0,7.45H64ZM150.13,12,156,24.48h6.59L168.44,12v12.5h5.95V0H167.8l-8.5,18L150.77,0h-6.55V24.48h5.91Zm-30.22,8.68h11.81l1.58,3.82h6.3L129.09,0H122.5L112,24.48h6.26Zm5.94-14,3.82,9.15H122ZM52,0H46V11.91c0,4.72-2.3,7.53-6,7.53s-5.76-2.81-5.76-7.53V0h-5.9V11.91c0,8.1,4.71,13,11.66,13s12-4.9,12-13ZM10.83,0,0,0V24.48H10.83c7.63,0,12.92-5.15,12.92-12.28S18.89,0,10.83,0Zm0,19H5.9V5.47h4.93c4.18,0,7,2.34,7,6.73C17.78,16.31,14.94,19,10.83,19Zm86.5,17h-5.9V60.48h5.9ZM127.8,48.24a12.64,12.64,0,1,0,12.63-12.67A12.63,12.63,0,0,0,127.8,48.24Zm12.63-7.16a7.19,7.19,0,1,1-7.23,7.16A7.19,7.19,0,0,1,140.43,41.08Zm-26.5,19.83c5.73,0,9.83-2.91,9.83-7.59,0-5.4-5.44-6.69-9.29-7.7-3.45-.9-5.07-1.37-5.07-2.56,0-1.4,2.16-2.19,3.92-2.19,2.52,0,4,1.65,4,2.88h5.87c0-3.82-3.39-8.18-9.76-8.18-5.58,0-10,3.32-10,7.78,0,5.44,6.44,6.8,10.12,7.67,2.26.54,4.31,1.08,4.31,2.63,0,1-1,2.15-3.59,2.15-4.86,0-5.33-3.88-5.33-3.88h-5.87C103.06,55.73,106.26,60.91,113.93,60.91ZM64.46,36V60.48H76.52c6.69,0,9.25-3.13,9.25-7.12a6.37,6.37,0,0,0-3.68-5.94,6.28,6.28,0,0,0,2.31-4.68c0-3.92-2.23-6.73-9.32-6.73Zm11.37,19.4H70.36V50.66h5.47c2.34,0,3.57.57,3.57,2.37C79.4,54.62,78.21,55.41,75.83,55.41Zm3-11.91c0,1.9-.79,2.66-3.35,2.66H70.36V41.05h5.07C77.7,41.05,78.78,41.84,78.78,43.5ZM158.23,36V60.48h5.94v-15l12.38,15h5.94V36h-5.94V50.94L164.17,36Zm15.09,36h-5.91V96.5h5.91V87h10.76V96.5H190V72h-5.94v9.5H173.32ZM75.84,96.5H82.1l1.62-3.82H95.53l1.58,3.82h6.3L92.9,72H86.31Zm17.64-8.64H85.77l3.89-9.14Zm68.81,2.7-5-2.88a7.1,7.1,0,0,1-6.44,3.71,7.22,7.22,0,0,1-7.27-7.31,7.39,7.39,0,0,1,13.79-3.46l5-2.91a13,13,0,0,0-11.52-6.12c-7.66,0-13.24,5.68-13.24,12.49,0,7.23,5.58,12.85,13.24,12.85A13.12,13.12,0,0,0,162.29,90.56Zm-48.5-9,12.38,15h5.94V72h-5.94V87L113.79,72h-5.94V96.5h5.94Zm-47,7.6a8.81,8.81,0,0,0,4.35-7.92c0-5.33-3.74-9.18-8.71-9.18H50.63V96.5h5.9V90.41h4.32l3.67,6.09h7.35Zm-5.22-4.18H56.53V77.49h5.11a3.73,3.73,0,0,1,0,7.45Zm128.2,32.7c-3.46-.9-5.08-1.36-5.08-2.55,0-1.41,2.16-2.2,3.93-2.2,2.52,0,4,1.66,4,2.88h5.87c0-3.82-3.38-8.17-9.75-8.17-5.58,0-10,3.31-10,7.78,0,5.43,6.44,6.8,10.11,7.66,2.27.54,4.32,1.08,4.32,2.63,0,1-1,2.16-3.6,2.16-4.86,0-5.32-3.89-5.32-3.89H178.4c0,3.82,3.2,9,10.87,9,5.72,0,9.82-2.91,9.82-7.59C199.09,120,193.66,118.65,189.81,117.64ZM67.09,113.5h8.67v19h6v-19h8.67V108H67.09Zm39-5.9a12.67,12.67,0,1,0,12.64,12.67A12.65,12.65,0,0,0,106.08,107.6Zm0,19.87a7.18,7.18,0,1,1,7.16-7.2A7.2,7.2,0,0,1,106.08,127.47ZM140.87,120c0,4.71-2.31,7.52-6,7.52s-5.76-2.81-5.76-7.52V108h-5.9V120c0,8.1,4.71,13,11.66,13s12-4.89,12-13V108h-6Zm32.66-2.74c0-5.33-3.75-9.18-8.72-9.18H153v24.48h5.91v-6.08h4.32l3.67,6.08h7.34l-5-7.38A8.8,8.8,0,0,0,173.53,117.21ZM164,121h-5.07V113.5H164a3.73,3.73,0,0,1,0,7.46Z" fill="#aa8064"/></svg>