<svg id="Layer_1" data-name="Layer 1" xmlns="http://www.w3.org/2000/svg" viewBox="0 0 399.75 130.77"><path d="M46.37,65a10.54,10.54,0,0,0-4.17-4.28,9.67,9.67,0,0,0-4.78-1.17c-3.41,0-6.92,1.53-8.6,4.22a13.18,13.18,0,0,0-1.88,7,15.48,15.48,0,0,0,.15,2.19c.71,4.94,5.85,7.84,10.63,7.84a11.12,11.12,0,0,0,4.33-.87c3.87-1.78,5.6-5.6,5.6-9.61a11.26,11.26,0,0,0-.21-2.24A7.24,7.24,0,0,0,46.37,65ZM43.22,70.8a7.26,7.26,0,0,1-3.51,5,5.44,5.44,0,0,1-2.19.51,4.48,4.48,0,0,1-.81-.1,3.61,3.61,0,0,1-2.24-1s-.1-.15-.2-.2a8.51,8.51,0,0,1-2.19-2.29,6.32,6.32,0,0,1-.66-2.65,2.56,2.56,0,0,1,0-.61,5.89,5.89,0,0,1,5.9-5.08,5.74,5.74,0,0,1,3.86,1.47,6.22,6.22,0,0,1,2,4.27A2.47,2.47,0,0,1,43.22,70.8ZM80.76,60.33H80a4,4,0,0,1-.87-.06,7.61,7.61,0,0,0-1.27-.3.86.86,0,0,0-.76.51,10.4,10.4,0,0,0-.82,2.39c-.5,1.53-1.22,3.25-1.78,4.78-.3,1-1,2.09-1.83,2.09-.3,0-.76-.26-1.12-.92a27.31,27.31,0,0,1-1.62-4.22c-.51-1.38-.56-3-1.12-4.22a2.19,2.19,0,0,0-1.73-1.33,1.07,1.07,0,0,0-.71.16c-1,.56-1.48,3.15-1.84,4.17a26,26,0,0,1-1.47,4.42c-.31.56-.82.92-1.12,1.48-.2.41-.26,1.47-.76,1.68A.56.56,0,0,1,61,71c-1,0-.76-2-1-2.49-.41-1.53-1.48-2.65-1.84-4.28a13.32,13.32,0,0,0-.66-3.1,1.4,1.4,0,0,0-1.37-1c-.51,0-1,.16-1.58.16s-1.22-.26-1.78-.26a1,1,0,0,0-1.12,1.12c.05,1.78,1.17,3.21,2,4.68A39.13,39.13,0,0,1,56,70.14c.61,1.53,1,3.06,1.63,4.58.5,1.07,1.88,6.72,3.46,6.72.35,0,.61-.21.91-.72.92-1.32,1.17-3,1.68-4.57s1-3,1.63-4.43c.35-.81,1.07-2.24,1.83-2.24.35,0,.61.26.91.77a4.91,4.91,0,0,1,.51,2,17.17,17.17,0,0,0,1,2.39,33.12,33.12,0,0,1,1.27,4.58c.26,1,.92,2.19,1.78,2.19.31,0,.66-.21,1-.72.81-1.06.81-2.34,1.27-3.61s1.27-2,1.63-3.2c.66-2.39,2-4.53,3-6.72.77-1.68,1.88-3.3,2.55-4.88a3.56,3.56,0,0,0,.25-1.07C82.44,60.38,81.63,60.33,80.76,60.33ZM54.21,33.27a2.39,2.39,0,0,0,.1-.71c0-.77-.15-1.73-.15-2.19v-.81c0-1.17-.16-2.39-.26-3.62a24.6,24.6,0,0,1-.15-3.35c0-1.63,0-3.31.15-4.84,0-.5.15-1.22.15-1.83a1.79,1.79,0,0,0-.3-1.17,3.5,3.5,0,0,0-2.29-.56,9.91,9.91,0,0,0-1.32.05c-.77,0-.87.46-.87.77v.45c0,.41-.1.67-.76.67-1.07,0-1.88-1.43-2.7-1.89a9.42,9.42,0,0,0-3.25-.81H42.2a12.14,12.14,0,0,0-4.73,1,7.53,7.53,0,0,0-3.21,3.3,13.68,13.68,0,0,0-1.62,6.62,15.46,15.46,0,0,0,.3,3.05A9.47,9.47,0,0,0,38.79,34a13,13,0,0,0,4,.77,6,6,0,0,0,4.38-1.68c.56-.56,1-2.19,1.62-2.19.21,0,.46.15.77.56.4.61.1,1.58.61,2.09a2.08,2.08,0,0,0,1.47.35C52.73,33.93,54,33.68,54.21,33.27ZM47.54,28a6.62,6.62,0,0,1-4.47,1.68,4.32,4.32,0,0,1-2-.46C39.25,28.34,38.33,26,38.33,24a3.88,3.88,0,0,1,.11-1.12,5.48,5.48,0,0,1,2.13-3.61,4.46,4.46,0,0,1,2.8-1,3.64,3.64,0,0,1,.71,0A7,7,0,0,1,47.59,20a5.94,5.94,0,0,1,1.48,4A5.61,5.61,0,0,1,47.54,28Zm41.71-9c1.07,1,1.38,2.69,1.38,4.47,0,2-.41,4.28-.46,5.75,0,.87-.36,2-.36,3a3.11,3.11,0,0,0,.31,1.38c.36.61,1.32.76,2.24.76a10.16,10.16,0,0,0,1.42-.15c1.27-.1,1.88-.56,1.88-1.63,0-.15,0-.31,0-.46-.2-1.78-.15-3.51-.25-5.29,0-.86-.15-1.63-.15-2.49a4.8,4.8,0,0,1,.05-.82c0-.5,0-1,0-1.52a12.32,12.32,0,0,0-.56-3.82,5.58,5.58,0,0,0-3.15-3.91,5.81,5.81,0,0,0-2.9-.67,7.64,7.64,0,0,0-1.58.11,6.64,6.64,0,0,0-2.29.81c-.51.31-1.37,1.42-1.88,1.53a2.43,2.43,0,0,0-.26.05c-.25,0-.35-.26-.35-.56s0-.36,0-.56a1.1,1.1,0,0,0-.21-.71c-.3-.41-1.27-.46-2-.46-.56,0-1,0-1.32,0-1.07.1-1.22.66-1.22,1.73,0,1.63.2,3.36.25,4.93,0,1.12,0,2.24,0,3.36,0,2.14,0,4.27-.25,6.36,0,.61-.31,1.47-.31,2.19a1.47,1.47,0,0,0,.26,1,2.49,2.49,0,0,0,2.13.82,8.2,8.2,0,0,0,2.44-.41,1.66,1.66,0,0,0,1.07-1.68,14.64,14.64,0,0,0-.3-2,30.84,30.84,0,0,1-.26-4.89V24.11c0-1.83.1-3.3,1.63-4.58a5.36,5.36,0,0,1,3.16-1.11A2.49,2.49,0,0,1,89.25,19Zm98.34-1c0,2.08,0,4.12,0,6.15,0,1.73,0,3.41-.1,5.09a29.16,29.16,0,0,0-.36,3.26c0,.76.1,1.32.46,1.57a.7.7,0,0,0,.56.16,18.44,18.44,0,0,0,1.88-.31h.25c.51,0,1,.1,1.48.1a2.61,2.61,0,0,0,.66-.1c.81-.15,1.07-.81,1.07-1.58a15.9,15.9,0,0,0-.36-2.29,33.21,33.21,0,0,1-.3-5v-.2c0-2.29,0-5.75,2.39-6.72a4.36,4.36,0,0,1,4.12.66,4.82,4.82,0,0,1,.86,3.16v1c0,2.24,0,4.43-.15,6.67,0,.61-.2,1.47-.2,2.29,0,1,.25,1.88,1.37,2.08a16.5,16.5,0,0,0,2.8.26,3.31,3.31,0,0,0,1.58-.26,2.28,2.28,0,0,0,.4-1.52c0-1.28-.3-2.8-.35-3.56a5.38,5.38,0,0,1,0-.92c0-.66,0-1.37,0-2.14v-.51a8.63,8.63,0,0,1,0-1.11c0-.92,0-1.89,0-2.8,0-2.34-.31-4.53-2.39-6.21A6.36,6.36,0,0,0,199,13.94a8.47,8.47,0,0,0-1.12.05c-1.68,0-2.69,1.47-4.22,1.47-.56,0-1-.35-1-1.27V12.67c0-1.68.05-3.36.21-5,.1-1.12.25-2.24.3-3.36,0-.76.26-1.68.26-2.54a3.17,3.17,0,0,0-.05-.71c-.26-.56-.67-.66-1.33-.66A32.29,32.29,0,0,1,188.81,0h-.26c-.81,0-1.22.46-1.37,1.32A4.81,4.81,0,0,0,187,2.8c0,1.22.2,2.49.25,3.61C187.54,10.28,187.59,14.14,187.59,18ZM148.26,30a4.28,4.28,0,0,1-1.83-.4c-.81-.36-.91-1.22-1.88-1.38a1.57,1.57,0,0,0-.51-.05,3,3,0,0,0-1.63.46,2.58,2.58,0,0,0-1.52,2.09,1.35,1.35,0,0,0,.4,1A7.7,7.7,0,0,0,143.53,33a8.51,8.51,0,0,0,2.45.91,9.15,9.15,0,0,0,2.18.31,9.29,9.29,0,0,0,2.75-.41A5.65,5.65,0,0,0,155,28.08a7.4,7.4,0,0,0-.25-2.08c-.62-2.4-3.31-3.36-5.29-4.38-1-.51-3.26-1.17-3.26-2.44a1.91,1.91,0,0,1,.25-.82,1.52,1.52,0,0,1,1.33-.66,4.17,4.17,0,0,1,1.32.26c.66.2,1.32.86,2,1a3.2,3.2,0,0,0,2.34-1.67,1.34,1.34,0,0,0,.31-.82c0-.61-.51-1.12-1.12-1.58a6.83,6.83,0,0,0-1.93-.91,4.52,4.52,0,0,0-.82,0h-.51c-.35,0-.71-.05-1.06-.05a7.28,7.28,0,0,0-1.78.25,8.59,8.59,0,0,0-3.41,1.68,4.68,4.68,0,0,0-1.63,3.51,2.73,2.73,0,0,0,0,.66c.2,2.39,2,4,4,5.09,1.22.66,5,1.27,5,3.15a2.17,2.17,0,0,1-.1.51A2.23,2.23,0,0,1,148.26,30ZM173.5,19a4.87,4.87,0,0,1,.5,2.59c0,1-.1,2-.1,2.59,0,1.53-.05,3-.1,4.53-.05.82-.41,2.34-.41,3.51a2.24,2.24,0,0,0,.31,1.27,2.64,2.64,0,0,0,2,.61c.36,0,.67-.05.92-.05.41,0,.76.05,1.07.05a1.09,1.09,0,0,0,1.22-.76,3.2,3.2,0,0,0,.15-1,18.51,18.51,0,0,0-.35-2.24c-.05-1-.05-2-.05-2.9-.11-1.27-.11-2.55-.11-3.82,0-.76,0-1.58,0-2.34.06-.56.06-1.07.11-1.58.35-2.39,3.91.06,3.91-2.59V15.72a1.33,1.33,0,0,0-.35-1.07,1.23,1.23,0,0,0-.82-.25c-.51,0-1.06.2-1.57.2a1,1,0,0,1-.72-.25,2,2,0,0,1-.35-1.38v-.76c0-.76.35-2.14.35-3.31a3,3,0,0,0-.25-1.27,1.67,1.67,0,0,0-1.37-.51c-.36,0-.67,0-.92,0-1.73.1-3.05-.15-3.05,2,0,.81.4,2.13.4,3.2a1.93,1.93,0,0,1-.55,1.53,1.16,1.16,0,0,1-.87.3c-.25,0-.51-.05-.76-.05a1.1,1.1,0,0,0-.61.1c-.82.36-.82,1.17-.92,1.94a5,5,0,0,0-.1.86,1.37,1.37,0,0,0,.51,1.17C171.56,18.87,172.83,18.16,173.5,19ZM24.75,3.51c-.56,0-1.27-.15-1.93-.15a2.56,2.56,0,0,0-2.34.91,2,2,0,0,0-.31,1.22c0,.87.31,1.84.31,2.65v.2c-.05.51-.05,1.07-.05,1.58v.81c0,.82,0,1.63-.05,2.45-.21,2-1.22,2-2.85,2.08h-.36c-1.07.05-2.13.1-3.25.1a26.12,26.12,0,0,1-2.8-.15c-1-.05-2.14.2-2.8-.71a3.68,3.68,0,0,1-.61-2.34c0-.66,0-1.38,0-2,0-1.57.41-3,.41-4.47V5.24c-.1-2-1.32-2-2.95-2.09H4.35a2.66,2.66,0,0,0-2.18.72A2,2,0,0,0,1.91,5c0,.86.21,1.78.26,2.49.1.86.15,1.78.2,2.64l.1,1.43v1c0,1-.05,1.93-.05,2.84a6.91,6.91,0,0,0,.05,1.07c0,.66,0,1.27,0,2,0,2.54-.2,5.08-.2,7.68C2.32,26.76,2,29.05,2,31c0,1.73.26,3.21,1.17,3.21a.2.2,0,0,1,.15-.06A10.8,10.8,0,0,1,4.61,34h.2c.56,0,1.12.1,1.63.1a1.31,1.31,0,0,0,1.27-.66A3.16,3.16,0,0,0,8,32.05c0-.56-.11-1.22-.11-1.78l-.2-4.89c0-.4,0-.86,0-1.42a6.46,6.46,0,0,1,.61-3.26c.61-.86,2-1,3.26-1,.55,0,1.06,0,1.47,0,1.48.05,3,.2,4.48.35a2.17,2.17,0,0,1,.25.05c2,.21,2.49.46,2.49,2.5a19.89,19.89,0,0,0,.41,2.49v.46c0,.61-.1,1.27-.1,1.88,0,1.73-.05,3.36-.1,5,0,1.27.71,1.62,1.78,1.62.35,0,.81,0,1.27,0H24c1.42,0,1.68-.76,1.68-2v-.77A10.7,10.7,0,0,1,25.62,30c0-.76.05-1.47.05-2.18,0-.41-.05-.87-.05-1.38-.05-.91-.1-1.83-.1-2.8,0-2.34.15-4.63.15-6.91v-.46c0-1.53.15-3,.15-4.43,0-1.12-.05-2.19-.05-3.25,0-.56,0-1.07.05-1.63A13,13,0,0,0,26.08,5C26.08,4.27,25.82,3.76,24.75,3.51Zm192.09,30a8.58,8.58,0,0,0,4.63,1.43,10.27,10.27,0,0,0,3.91-.87c1.68-.71,3.77-1.42,5-2.85a1.64,1.64,0,0,0,.3-.91c0-1.17-1.52-2.34-2.74-2.34a2.13,2.13,0,0,0-.56.1c-1.27.51-2,1.83-3.36,2.14a6.64,6.64,0,0,1-1,0h-1.17a4.84,4.84,0,0,1-3.76-1.33,4.48,4.48,0,0,1-1.17-2.59,1.48,1.48,0,0,1,.05-.46c.2-.81,1-1,1.73-1s1.42.1,2,.1.92-.05,1.33-.05c2.23,0,4.47.25,6.71.25h.41c1.52,0,2.34-.05,2.34-1.37a3.59,3.59,0,0,0-.05-.71,12.24,12.24,0,0,0-1.07-4.63c-1.48-2.7-4.53-5-7.63-5a19.14,19.14,0,0,0-4.53,1,8.09,8.09,0,0,0-4.22,2.44,9.35,9.35,0,0,0-2.14,6.46,22.29,22.29,0,0,0,.15,2.54A9.32,9.32,0,0,0,216.84,33.47Zm1.06-14.65a1.73,1.73,0,0,1,.41-.4,5.74,5.74,0,0,1,3.41-1.07,4.4,4.4,0,0,1,4.07,2.08,2.75,2.75,0,0,1,.2.92,1.86,1.86,0,0,1-.4,1.22c-.46.41-1.58.3-2.19.36H223c-1,0-2-.11-3-.11-1.37,0-2.85-.45-2.85-1.52A2.74,2.74,0,0,1,217.9,18.82ZM13.15,59.66a7.06,7.06,0,0,0-3.1.67c-1.07.5-2,2.28-3.2,2.28H6.64c-.35-.81.05-1.73-.86-2.28a4.75,4.75,0,0,0-2.19-.51,3.18,3.18,0,0,0-1.47.3,4.55,4.55,0,0,0-.41.26,1.2,1.2,0,0,0-.36.91,4.61,4.61,0,0,0,.26,1.12,15,15,0,0,1,.51,4.22c0,1.58-.16,3.11-.21,4.63,0,1,0,2.09,0,3.21v3.81a41.22,41.22,0,0,1-.2,5c-.11,1.58-.31,3.36-.31,5V89c0,1.42.66,1.57,3.46,1.57h.46A1.83,1.83,0,0,0,7,89.83a1.23,1.23,0,0,0,.3-.76,8.59,8.59,0,0,0-.25-1.33C6.9,86,6.9,84,6.79,82.2c0-.46-.1-1.68-.1-2.8s0-2.13.51-2.19c.92.21,1.43,1.38,2.19,1.78A9.06,9.06,0,0,0,12,80a7,7,0,0,0,1.79.16A7.9,7.9,0,0,0,19.41,78a11.8,11.8,0,0,0,3.26-8.5A16.06,16.06,0,0,0,22.21,66C21.29,62.41,17.07,59.66,13.15,59.66Zm.31,16.28a5.17,5.17,0,0,1-1.22.16,6.15,6.15,0,0,1-4.53-1.79A5.39,5.39,0,0,1,6.64,70.6a7.76,7.76,0,0,1,1.43-4.83,5.46,5.46,0,0,1,4-1.58,6.63,6.63,0,0,1,4.12,1.43,4.73,4.73,0,0,1,1.67,3.86C17.88,72.28,16.1,75.43,13.46,75.94Zm47.21-53.1c0,1.53-.11,3.05-.16,4.58-.1,1.27-.25,2.64-.25,4a12.1,12.1,0,0,0,.05,1.37A1.31,1.31,0,0,0,61.84,34c.66,0,1.47-.2,2.13-.2h.1c.46.05.82.15,1.07.15.41,0,.61-.15.82-.71a2.5,2.5,0,0,0,.15-.92A12.35,12.35,0,0,0,66,30.88a34.37,34.37,0,0,1-.36-4.63,24.58,24.58,0,0,1,.25-3.31c.31-1.88,1.38-4.37,3.62-4.37.15,0,.3.05.45.05a11.93,11.93,0,0,0,1.53.2c.56,0,.92-.2,1.27-1.07a8.23,8.23,0,0,0,.77-2.69A1.46,1.46,0,0,0,73.13,14a3,3,0,0,0-2-.56,6.52,6.52,0,0,0-1.12.1c-1.63.2-2.09,1.12-3.26,1.93-.2.16-.2.26-.51.36-.46-.1-.56-.25-.56-.46v-.2a.92.92,0,0,0,0-.36c-.3-.61-.91-.66-1.58-.66-.35,0-.76,0-1.06,0a1.13,1.13,0,0,1-.41,0,10.56,10.56,0,0,0-1.22-.25,1.41,1.41,0,0,0-.46,0,2,2,0,0,0-.81,1.32,6.4,6.4,0,0,0-.11,1,36.17,36.17,0,0,0,.61,4.83A17.16,17.16,0,0,1,60.67,22.84ZM117.08,62c-.46-.1-.56-.25-.56-.46v-.2a.85.85,0,0,0,0-.35c-.3-.61-.91-.67-1.58-.67-.35,0-.76.06-1.06.06a1,1,0,0,1-.41-.06A11,11,0,0,0,112.2,60a1.41,1.41,0,0,0-.46,0,2,2,0,0,0-.81,1.32,5.34,5.34,0,0,0-.11,1,36.17,36.17,0,0,0,.61,4.83c0,.56,0,1.17,0,1.78,0,1.53-.1,3.06-.15,4.58-.1,1.27-.25,2.65-.25,4a12,12,0,0,0,0,1.37,1.32,1.32,0,0,0,1.53,1.28c.66,0,1.47-.21,2.13-.21h.1c.46.05.82.15,1.07.15.41,0,.61-.15.82-.71a2.48,2.48,0,0,0,.15-.91,12.31,12.31,0,0,0-.15-1.48,34.25,34.25,0,0,1-.36-4.63,24.31,24.31,0,0,1,.25-3.3c.31-1.89,1.38-4.38,3.62-4.38.15,0,.3,0,.45,0a11.93,11.93,0,0,0,1.53.2c.56,0,.92-.2,1.27-1.06a8.29,8.29,0,0,0,.76-2.7,1.46,1.46,0,0,0-.35-1.07,3,3,0,0,0-2-.56,6.73,6.73,0,0,0-1.12.1c-1.62.21-2.08,1.12-3.25,1.94C117.39,61.75,117.39,61.85,117.08,62Zm57.64,6.11a7.38,7.38,0,0,0-1.07-3,10.54,10.54,0,0,0-4.17-4.28,9.72,9.72,0,0,0-4.78-1.17c-3.41,0-6.92,1.53-8.6,4.22a13.18,13.18,0,0,0-1.88,7,15.48,15.48,0,0,0,.15,2.19c.71,4.94,5.85,7.84,10.63,7.84a11.16,11.16,0,0,0,4.33-.87c3.86-1.78,5.59-5.6,5.59-9.61A11.25,11.25,0,0,0,174.72,68.06Zm-4.23,2.74a7.2,7.2,0,0,1-3.51,5,5.39,5.39,0,0,1-2.18.51,4.59,4.59,0,0,1-.82-.1,3.64,3.64,0,0,1-2.24-1c-.05,0-.1-.15-.2-.2a8.66,8.66,0,0,1-2.19-2.29,6.47,6.47,0,0,1-.66-2.65,2.56,2.56,0,0,1,.05-.61,5.91,5.91,0,0,1,5.9-5.08,5.74,5.74,0,0,1,3.87,1.47,6.22,6.22,0,0,1,2,4.27A2.07,2.07,0,0,1,170.49,70.8Zm28.29,8.6a2.48,2.48,0,0,0,.15-.91,12.31,12.31,0,0,0-.15-1.48,36,36,0,0,1-.36-4.63,22.82,22.82,0,0,1,.26-3.3c.3-1.89,1.37-4.38,3.61-4.38.15,0,.3,0,.46,0a11.81,11.81,0,0,0,1.52.2c.56,0,.92-.2,1.27-1.06a8.29,8.29,0,0,0,.77-2.7,1.43,1.43,0,0,0-.36-1.07,3,3,0,0,0-2-.56,6.52,6.52,0,0,0-1.12.1c-1.63.21-2.09,1.12-3.26,1.94-.2.15-.2.25-.51.35-.45-.1-.56-.25-.56-.46v-.2a.85.85,0,0,0-.05-.35c-.3-.61-.91-.67-1.57-.67-.36,0-.77.06-1.07.06a1,1,0,0,1-.41-.06A10.15,10.15,0,0,0,194.2,60a1.48,1.48,0,0,0-.46,0,2.08,2.08,0,0,0-.81,1.32,6.38,6.38,0,0,0-.1,1,36.17,36.17,0,0,0,.61,4.83c.05.56.05,1.17.05,1.78,0,1.53-.1,3.06-.15,4.58-.11,1.27-.26,2.65-.26,4a12,12,0,0,0,0,1.37,1.32,1.32,0,0,0,1.53,1.28c.66,0,1.47-.21,2.13-.21h.11c.45.05.81.15,1.06.15C198.37,80.11,198.58,80,198.78,79.4Zm51.33-2.34c.2,0,.45.15.76.56.41.61.1,1.58.61,2.09a2.08,2.08,0,0,0,1.47.35c1.07,0,2.29-.25,2.55-.66a2.39,2.39,0,0,0,.1-.71c0-.76-.15-1.73-.15-2.19v-.81c0-1.17-.15-2.39-.26-3.61a24.82,24.82,0,0,1-.15-3.36c0-1.63.05-3.31.15-4.83,0-.51.16-1.22.16-1.84a1.75,1.75,0,0,0-.31-1.17,3.54,3.54,0,0,0-2.29-.55,9.91,9.91,0,0,0-1.32.05c-.76,0-.87.45-.87.76v.46c0,.4-.1.66-.76.66-1.07,0-1.88-1.43-2.7-1.88a9.16,9.16,0,0,0-3.25-.82h-.36a12.14,12.14,0,0,0-4.73,1,7.43,7.43,0,0,0-3.2,3.31,13.52,13.52,0,0,0-1.63,6.61,15.39,15.39,0,0,0,.3,3,9.51,9.51,0,0,0,5.85,6.62,13.39,13.39,0,0,0,4,.76,6,6,0,0,0,4.38-1.68C249,78.69,249.45,77.06,250.11,77.06Zm-5.75-1.22a4.34,4.34,0,0,1-2-.46c-1.83-.91-2.74-3.25-2.74-5.29a4.29,4.29,0,0,1,.1-1.12,5.54,5.54,0,0,1,2.13-3.61,4.46,4.46,0,0,1,2.8-1,3.59,3.59,0,0,1,.71,0,6.82,6.82,0,0,1,3.51,1.73,5.89,5.89,0,0,1,1.48,4,5.61,5.61,0,0,1-1.53,4A6.6,6.6,0,0,1,244.36,75.84Zm-14.6-5.54a10.56,10.56,0,0,0-.21-2.24,7.23,7.23,0,0,0-1.06-3,10.51,10.51,0,0,0-4.18-4.28,9.67,9.67,0,0,0-4.78-1.17c-3.41,0-6.92,1.53-8.59,4.22a13.1,13.1,0,0,0-1.89,7,14.11,14.11,0,0,0,.16,2.19c.71,4.94,5.85,7.84,10.63,7.84a11.11,11.11,0,0,0,4.32-.87C228,78.13,229.76,74.31,229.76,70.3Zm-7.94,5.54a5.4,5.4,0,0,1-2.19.51,4.48,4.48,0,0,1-.81-.1,3.64,3.64,0,0,1-2.24-1c-.05,0-.1-.15-.2-.2a8.51,8.51,0,0,1-2.19-2.29,6.32,6.32,0,0,1-.66-2.65,2.56,2.56,0,0,1,.05-.61,5.9,5.9,0,0,1,5.9-5.08,5.74,5.74,0,0,1,3.87,1.47,6.21,6.21,0,0,1,2,4.27,2.47,2.47,0,0,1,0,.61A7.23,7.23,0,0,1,221.82,75.84Zm56.62,3.56a1.71,1.71,0,0,0,.36-1,6.79,6.79,0,0,0-.46-1.78,7.72,7.72,0,0,1-.1-1.52V73.55a12.55,12.55,0,0,1-.05-1.37,14.64,14.64,0,0,1,.05-1.48c.1-2.13.4-6.56,3.15-6.56a3.13,3.13,0,0,1,1.12.2c2.29.77,2.7,3.31,2.7,5.7,0,1.22-.1,2.34-.1,3.26,0,1.73-.36,3.41-.51,5.14v.2c0,1.17,1.12,1.53,2.34,1.53a6.56,6.56,0,0,0,2.44-.51,1.37,1.37,0,0,0,1-1.38c0-.66-.31-1.42-.36-2.13a49.08,49.08,0,0,1-.31-5.45c0-.71.05-1.47.05-2.24V65.62a8.19,8.19,0,0,0-.5-3.06,5,5,0,0,0-4.79-3.1,6.63,6.63,0,0,0-2.74.61c-1.07.56-2,2-3.16,2.34a.63.63,0,0,1-.3.05c-1,0-2.09-1.42-2.95-1.93a4.91,4.91,0,0,0-2.65-.92,4.44,4.44,0,0,0-1.17.21c-1.27.3-2.29,1.47-3.56,1.47a3.81,3.81,0,0,1-1-.2c-.66-.31-1.06-.82-1.78-1-.2,0-1.17-.1-1.88-.1-.41,0-.71,0-.71.1a3.46,3.46,0,0,0-.46.71,2.69,2.69,0,0,0-.1.66,9.94,9.94,0,0,0,.25,1.63c0,.46.05.82.05,1.22v2.34c0,2.9-.35,5.9-.35,8.86v.35c0,.66-.15,1.43-.15,2.14A1.91,1.91,0,0,0,263,80.06a9.62,9.62,0,0,0,2.18.26c1,0,2.09-.15,2.4-.56a2.88,2.88,0,0,0,.3-1.58c0-1.17-.25-2.59-.3-3.31a17.55,17.55,0,0,1-.16-2.44c0-.81.05-1.68.05-2.49,0-.66-.05-1.32-.05-2a4.17,4.17,0,0,1,.72-2.75,3.57,3.57,0,0,1,2.54-1.12,2.48,2.48,0,0,1,1.68.56c1.12.86,1.07,3.15,1.17,4.48a20.48,20.48,0,0,1,.15,2.44,20.19,20.19,0,0,1-.15,2.49c-.1,1.07-.26,2.19-.26,3.31,0,.2.05.45.05.71.11,1.58.72,1.83,1.84,1.83.3,0,.61,0,.91,0,.46,0,1,.1,1.32.1A1.07,1.07,0,0,0,278.44,79.4Zm21.21-5.59a3.49,3.49,0,0,0-3,1.52,4.66,4.66,0,0,0-.71,2.39,3.29,3.29,0,0,0,.51,1.83,3.44,3.44,0,0,0,2.8,1.53,5,5,0,0,0,4.17-3.15,3.07,3.07,0,0,0,.25-1.12C303.62,75,301.59,73.81,299.65,73.81ZM114.54,34c1.68-.71,3.76-1.42,5-2.85a1.58,1.58,0,0,0,.31-.91c0-1.17-1.53-2.34-2.75-2.34a2.2,2.2,0,0,0-.56.1c-1.27.51-2,1.83-3.36,2.14a6.51,6.51,0,0,1-1,0H111a4.87,4.87,0,0,1-3.77-1.33A4.48,4.48,0,0,1,106,26.3a1.48,1.48,0,0,1,0-.46c.21-.81,1-1,1.73-1s1.43.1,2,.1.91-.05,1.32-.05c2.24,0,4.48.25,6.71.25h.41c1.53,0,2.34-.05,2.34-1.37a3.59,3.59,0,0,0,0-.71,11.88,11.88,0,0,0-1.07-4.63c-1.47-2.7-4.53-5-7.63-5a19.25,19.25,0,0,0-4.53,1,8.13,8.13,0,0,0-4.22,2.44A9.35,9.35,0,0,0,101,23.35a22.29,22.29,0,0,0,.15,2.54A9.29,9.29,0,0,0,106,33.47a8.6,8.6,0,0,0,4.63,1.43A10.36,10.36,0,0,0,114.54,34Zm-7.48-15.21a1.42,1.42,0,0,1,.41-.4,5.69,5.69,0,0,1,3.4-1.07,4.4,4.4,0,0,1,4.07,2.08,2.53,2.53,0,0,1,.21.92,1.81,1.81,0,0,1-.41,1.22c-.46.41-1.58.3-2.19.36h-.4c-1,0-2-.11-3-.11-1.38,0-2.85-.45-2.85-1.52A2.67,2.67,0,0,1,107.06,18.82ZM147,73.4c-.1-1.27-.1-2.54-.1-3.82,0-.76,0-1.57.05-2.34.05-.56.05-1.06.1-1.57.36-2.39,3.92,0,3.92-2.6V61.85a1.33,1.33,0,0,0-.35-1.07,1.23,1.23,0,0,0-.82-.25c-.51,0-1.07.2-1.58.2a1,1,0,0,1-.71-.25,2,2,0,0,1-.35-1.38v-.76c0-.76.35-2.14.35-3.31a3,3,0,0,0-.25-1.27,1.71,1.71,0,0,0-1.38-.51c-.35,0-.66.06-.91.06-1.73.1-3.05-.16-3.05,2,0,.81.4,2.14.4,3.2a1.87,1.87,0,0,1-.56,1.53,1.11,1.11,0,0,1-.86.31c-.26,0-.51-.05-.76-.05a1.1,1.1,0,0,0-.61.1c-.82.35-.82,1.17-.92,1.93a5.16,5.16,0,0,0-.1.86A1.4,1.4,0,0,0,139,64.4c.86.61,2.13-.11,2.79.76a4.77,4.77,0,0,1,.51,2.59c0,1-.1,2-.1,2.6,0,1.52-.05,3-.1,4.52-.05.82-.41,2.34-.41,3.51a2.22,2.22,0,0,0,.31,1.28,2.63,2.63,0,0,0,2,.61c.36,0,.66,0,.92,0s.76,0,1.07,0a1.09,1.09,0,0,0,1.22-.77,3.2,3.2,0,0,0,.15-1A16.79,16.79,0,0,0,147,76.3C147,75.33,147,74.31,147,73.4ZM137.94,26c-.61-2.4-3.31-3.36-5.29-4.38-1-.51-3.26-1.17-3.26-2.44a1.81,1.81,0,0,1,.26-.82A1.49,1.49,0,0,1,131,17.7a4.11,4.11,0,0,1,1.32.26c.66.2,1.32.86,2,1a3.24,3.24,0,0,0,2.34-1.67,1.38,1.38,0,0,0,.3-.82c0-.61-.51-1.12-1.12-1.58a6.83,6.83,0,0,0-1.93-.91,4.52,4.52,0,0,0-.82,0h-.5c-.36,0-.72-.05-1.07-.05a7.28,7.28,0,0,0-1.78.25,8.66,8.66,0,0,0-3.41,1.68,4.68,4.68,0,0,0-1.63,3.51,2.73,2.73,0,0,0,.05.66c.2,2.39,2,4,4,5.09,1.22.66,5,1.27,5,3.15a2.17,2.17,0,0,1-.1.51A2.25,2.25,0,0,1,131.43,30a4.33,4.33,0,0,1-1.84-.4c-.81-.36-.91-1.22-1.88-1.38a1.57,1.57,0,0,0-.51-.05,2.94,2.94,0,0,0-1.62.46,2.57,2.57,0,0,0-1.53,2.09,1.32,1.32,0,0,0,.41,1A7.65,7.65,0,0,0,126.69,33a8.51,8.51,0,0,0,2.45.91,9.15,9.15,0,0,0,2.18.31,9.29,9.29,0,0,0,2.75-.41,5.65,5.65,0,0,0,4.12-5.75A7.4,7.4,0,0,0,137.94,26ZM104.62,64.6c-1.48-2.7-4.53-5-7.63-5a19.25,19.25,0,0,0-4.53,1A8.16,8.16,0,0,0,88.24,63a9.35,9.35,0,0,0-2.14,6.46A22.46,22.46,0,0,0,86.25,72a9.34,9.34,0,0,0,4.89,7.58A8.65,8.65,0,0,0,95.77,81a10.44,10.44,0,0,0,3.91-.86c1.68-.72,3.77-1.43,5-2.85a1.67,1.67,0,0,0,.3-.92c0-1.17-1.52-2.34-2.74-2.34a2.13,2.13,0,0,0-.56.1c-1.27.51-2,1.83-3.36,2.14a6.64,6.64,0,0,1-1,0H96.12A4.85,4.85,0,0,1,92.36,75a4.5,4.5,0,0,1-1.17-2.6,1.48,1.48,0,0,1,0-.46c.2-.81,1-1,1.73-1s1.42.1,2,.1.92,0,1.33,0c2.23,0,4.47.25,6.71.25h.41c1.52,0,2.34,0,2.34-1.37a3.64,3.64,0,0,0,0-.71A12.24,12.24,0,0,0,104.62,64.6Zm-4.73,3.1c-.46.41-1.58.31-2.19.36h-.41c-1,0-2-.1-3-.1-1.37,0-2.85-.46-2.85-1.53A2.71,2.71,0,0,1,92.21,65a1.52,1.52,0,0,1,.4-.4A5.81,5.81,0,0,1,96,63.48a4.4,4.4,0,0,1,4.07,2.08,2.8,2.8,0,0,1,.2.92A1.86,1.86,0,0,1,99.89,67.7Zm148.92,42.5h9.13v20.12h6.3V110.2h9.13v-5.8H248.81Zm28.8,20.12h19.74v-5.8H283.83v-4.45h11.29v-5.42H283.83V110.2h13.52v-5.8H277.61ZM119.9,120.26h7.84v2.51a9.08,9.08,0,0,1-6.33,2.17,7.61,7.61,0,0,1-7.73-7.66,7.29,7.29,0,0,1,7.66-7.47c3,0,5,.92,6.25,2.56l5.38-2.75A14.13,14.13,0,0,0,121.41,104a13.59,13.59,0,0,0-14,13.41c0,7,5.49,13.41,14,13.41a14.8,14.8,0,0,0,11.79-5.71v-9.61H119.9Zm36.22-15.86h-6.21v25.92h19.74v-5.8H156.12Zm42.14,25.92H218v-5.8H204.48v-4.45h11.29v-5.42H204.48V110.2H218v-5.8H198.26Zm23.27-20.12h9.13v20.12H237V110.2h9.13v-5.8H221.53Zm-41.23-5.8h-6.21v25.92h19.74v-5.8H180.3Zm-42.37,25.92h6.22V104.4h-6.22Z" fill="#a3883a"/><path d="M323.5,109.59a7.34,7.34,0,0,1,6.86,3.92l5.27-3.09A13.68,13.68,0,0,0,323.5,104c-8.07,0-13.94,6-13.94,13.22,0,7.66,5.87,13.6,13.94,13.6A13.78,13.78,0,0,0,335.55,124l-5.26-3a7.48,7.48,0,0,1-6.79,3.93,7.61,7.61,0,0,1-7.65-7.74A7.39,7.39,0,0,1,323.5,109.59ZM304.59,123.3a3.77,3.77,0,0,0-3.64,3.82,3.69,3.69,0,0,0,3.64,3.65,3.75,3.75,0,0,0,3.79-3.65A3.81,3.81,0,0,0,304.59,123.3Zm46-19.35a13.41,13.41,0,1,0,13.3,13.41A13.36,13.36,0,0,0,350.6,104Zm0,21a7.6,7.6,0,1,1,7.54-7.62A7.61,7.61,0,0,1,350.6,125Zm42.21-20.58-8.94,19-9-19H368v25.92h6.22V117.09l6.17,13.23h6.94l6.17-13.23v13.23h6.26V104.4Zm-359,25.92H40V104.4H33.8Zm22.81-15.74c-3.63-1-5.34-1.45-5.34-2.71,0-1.48,2.27-2.32,4.13-2.32,2.65,0,4.17,1.75,4.17,3h6.18c0-4-3.57-8.65-10.27-8.65-5.88,0-10.5,3.5-10.5,8.23,0,5.75,6.78,7.2,10.65,8.11,2.39.58,4.55,1.15,4.55,2.79,0,1.1-1,2.28-3.79,2.28-5.12,0-5.61-4.11-5.61-4.11H44.6c0,4,3.37,9.52,11.45,9.52,6,0,10.34-3.08,10.34-8C66.39,117,60.67,115.65,56.61,114.58Zm-41.76,8.34-8-18.52H0l11.41,25.92h6.82L29.67,104.4H22.81ZM81.4,110.2h9.13v20.12h6.29V110.2H106v-5.8H81.4ZM70.94,130.32h6.21V104.4H70.94Z" fill="#fff"/></svg>