<svg id="Layer_1" data-name="Layer 1" xmlns="http://www.w3.org/2000/svg" viewBox="0 0 435.2 160.87"><path d="M406.92,115.69c-10.52-2.66-15.45-4-15.45-7.55,0-4.14,6.57-6.48,11.94-6.48,7.67,0,12.06,4.89,12.06,8.5h17.86C433.33,98.9,423,86,403.63,86c-17,0-30.36,9.78-30.36,23,0,16.05,19.62,20.09,30.8,22.64,6.91,1.6,13.15,3.19,13.15,7.76,0,3.09-3,6.38-11,6.38-14.79,0-16.22-11.48-16.22-11.48H372.18c0,11.27,9.75,26.58,33.1,26.58,17.42,0,29.92-8.62,29.92-22.43C435.2,122.49,418.65,118.67,406.92,115.69Zm-372.18,0c-10.52-2.66-15.45-4-15.45-7.55,0-4.14,6.57-6.48,11.94-6.48,7.68,0,12.06,4.89,12.06,8.5H61.15c0-9-6.59-19-19.11-22.66V61.08H76.9V37.32H42V23.87H83.8V0H17.4V87.86h1.87C8.49,91.27,1.1,99.19,1.1,109c0,16.05,19.61,20.09,30.79,22.64,6.91,1.6,13.15,3.19,13.15,7.76,0,3.09-3,6.38-11,6.38-14.79,0-16.22-11.48-16.22-11.48H0c0,11.27,9.75,26.58,33.1,26.58,17.42,0,29.92-8.62,29.92-22.43C63,122.49,46.47,118.67,34.74,115.69ZM22.85,5.45h55.5v13H36.59V42.78H71.45V55.62H36.59V82.41H22.85Zm226.47,109c0-13.72-8.67-24.12-20.92-26.55h14V64H200.66V55.26h34.86V32.6H200.66V23.87h41.77V0H176V87.86h10.72v71.73h18v-18h13.15l11.18,18h22.36L236.06,137.8C244.06,133.65,249.32,124.83,249.32,114.41Zm-67.84-32v-77H237v13H195.21V38.05h34.86V49.81H195.21V69.44H237v13Zm38.69,43.06H204.72v-22h15.56a11,11,0,1,1-.11,22Zm-88.32-107H112.51V49h19.22c8,0,14.54-6.88,14.54-15.33S139.8,18.42,131.85,18.42Zm-.12,25.08H118V23.87h13.89c4.86,0,9,4.47,9,9.76S136.74,43.5,131.73,43.5Zm38.36,43.81h-.32L152.5,61.11c8.13-5.75,13.07-16,13.07-27.48,0-19.17-13.34-33.63-31-33.63H93.32V87.31H75.62v72.28H93.7V143.22h16.22c19.07,0,28.39-13.82,28.39-28.06,0-12.4-7.2-24.62-22-27.3H118V67.38h9.74l11.94,20.48h12.48v71.73h18V87.86h0l0-.07Zm-50,27.85c0,7.87-4.93,12-12.16,12H93.7v-23.7H108C115.18,103.57,120.11,107.4,120.11,115.16Zm22.66-32.75L130.84,61.93H112.51V82.41H98.77v-77h35.77c14.82,0,25.58,11.85,25.58,28.18,0,10.62-4.89,19.92-12.75,24.27l-2.58,1.43L160,82.41ZM318.93,64H277.17V55.26H312V32.6H277.17V23.87h41.76V0h-66.4V87.86h11.7v71.73h18V87.86h12.28v15.61h26.41v56.12h18.19V103.47h26.41V87.31H318.93Zm-5.45,18.42H258v-77h55.49v13H271.72V38.05h34.86V49.81H271.72V69.44h41.76Z" fill="#fff"/></svg>